<svg viewBox="0 0 512 512" width="20" height="20" xmlns="http://www.w3.org/2000/svg">
  <path fill-rule="evenodd" clip-rule="evenodd" d="m0 0h138.5v138.5h-138.5zm0 0" fill="#9F7A49"></path>
  <path fill-rule="evenodd" clip-rule="evenodd" d="m373.5 0h138.5v138.5h-138.5zm0 0" fill="#9F7A49"></path>
  <path fill-rule="evenodd" clip-rule="evenodd" d="m186.75 0h138.5v138.5h-138.5zm0 0" fill="#9F7A49"></path>
  <path fill-rule="evenodd" clip-rule="evenodd" d="m0 186.75h138.5v138.5h-138.5zm0 0" fill="#9F7A49"></path>
  <path fill-rule="evenodd" clip-rule="evenodd" d="m373.5 186.75h138.5v138.5h-138.5zm0 0" fill="#9F7A49"></path>
  <path fill-rule="evenodd" clip-rule="evenodd" d="m186.75 186.75h138.5v138.5h-138.5zm0 0" fill="#9F7A49"></path>
  <path fill-rule="evenodd" clip-rule="evenodd" d="m0 373.5h138.5v138.5h-138.5zm0 0" fill="#9F7A49"></path>
  <path fill-rule="evenodd" clip-rule="evenodd" d="m373.5 373.5h138.5v138.5h-138.5zm0 0" fill="#9F7A49"></path>
  <path fill-rule="evenodd" clip-rule="evenodd" d="m186.75 373.5h138.5v138.5h-138.5zm0 0" fill="#9F7A49"></path>
</svg>

